<svg id="Layer_1" data-name="Layer 1" xmlns="http://www.w3.org/2000/svg" viewBox="0 0 15.79 25.35"><defs><style>.cls-1{fill:#116450;}.cls-2{fill:#f89621;}.cls-3{fill:#f89623;}</style></defs><title>logo</title><path class="cls-1" d="M21.94,11.43a1.62,1.62,0,0,0,0,.2v11a1,1,0,0,1-.82.93,1.55,1.55,0,0,1-.37,0H16.53a2.34,2.34,0,0,1-.38,0,1,1,0,0,1-.83-1c0-.51,0-1,0-1.51a5.07,5.07,0,0,0-.16-1.29,3.59,3.59,0,0,0-3.44-2.66c-.17,0-.34,0-.52,0a2.35,2.35,0,0,1-.37-.05,1,1,0,0,1-.73-.9c0-.12,0-.25,0-.37v-4a.87.87,0,0,0-.05-.42l-.3,0a1,1,0,0,1-.88-1c0-.75,0-1.51,0-2.26a1.3,1.3,0,0,0,0-.48,4.76,4.76,0,0,0-.66-.06c-.09-.15,0-.33-.05-.49a4.77,4.77,0,0,1,0-.53l.21,0H23.41a1.76,1.76,0,0,1,.45,0,6.65,6.65,0,0,1,0,1l-.21.05h-.45a.4.4,0,0,0-.09.35v2.44a1,1,0,0,1-.89,1Z" transform="translate(-8.1 -2.69)"/><path class="cls-2" d="M8.42,6l.19-.27L9.8,4.17,10,4a.91.91,0,0,1,.7-.32h.45a.34.34,0,0,0,.33-.2c.07-.14.15-.28.23-.42a.62.62,0,0,1,.59-.34h7.49a.62.62,0,0,1,.59.34c.08.13.15.26.22.39a.38.38,0,0,0,.38.24h.44A.9.9,0,0,1,22,4l.09.11c.45.58.91,1.17,1.36,1.77a.83.83,0,0,1,.07.13s0,0,0,0l0,0h-15Z" transform="translate(-8.1 -2.69)"/><path class="cls-3" d="M11.71,18a2.81,2.81,0,0,1,2.79,2.83,2.82,2.82,0,1,1-5.63,0A2.81,2.81,0,0,1,11.71,18Zm1.5,2.83a1.5,1.5,0,0,0-1.49-1.53,1.52,1.52,0,1,0,0,3A1.51,1.51,0,0,0,13.21,20.79Z" transform="translate(-8.1 -2.69)"/><path class="cls-1" d="M12.3,24.41a.29.29,0,0,1,.36-.09.45.45,0,0,1,0,.12l-.18,1c0,.19-.13.23-.32.15,0,0,0,0,0,0l-.07,0-.27.11a.5.5,0,0,1-.68-.49,1.11,1.11,0,0,1,0-.37A.73.73,0,0,1,12.3,24.41Zm-.51,1a.49.49,0,0,0,.46-.52.32.32,0,0,0-.44-.32.53.53,0,0,0-.35.56A.31.31,0,0,0,11.79,25.41Z" transform="translate(-8.1 -2.69)"/><path class="cls-3" d="M18.62,26.25l0,.56a.6.6,0,0,0,.18,0,.74.74,0,0,1,.46-.07.37.37,0,0,1,.33.27.86.86,0,0,1-.35,1,.56.56,0,0,1-.62,0l-.11-.06c-.13,0-.19.21-.34.08a.13.13,0,0,1,0-.05l.27-1.55C18.39,26.26,18.41,26.25,18.62,26.25Zm.19,1.56a.55.55,0,0,0,.5-.64.37.37,0,0,0-.48-.26.56.56,0,0,0-.37.59A.33.33,0,0,0,18.81,27.81Z" transform="translate(-8.1 -2.69)"/><path class="cls-1" d="M15.56,25.65h-.25s0-.07,0-.1.05-.34.08-.51l0-.13c0-.18,0-.3-.15-.35a.36.36,0,0,0-.43.13,1.17,1.17,0,0,0-.11.28c0,.16,0,.32-.08.47s-.06.22-.3.19a8.2,8.2,0,0,1,.3-1.82l.25,0c0,.19-.09.35,0,.54l.15-.05a.65.65,0,0,1,.2,0,.41.41,0,0,1,.51.47,1.52,1.52,0,0,1,0,.21C15.65,25.19,15.61,25.41,15.56,25.65Z" transform="translate(-8.1 -2.69)"/><path class="cls-3" d="M16.12,27.24a.8.8,0,0,1-.94.79.55.55,0,0,1-.44-.61.79.79,0,0,1,1-.71A.48.48,0,0,1,16.12,27.24Zm-.26,0a.36.36,0,0,0-.54-.34.58.58,0,0,0-.29.64.34.34,0,0,0,.29.25A.54.54,0,0,0,15.86,27.27Z" transform="translate(-8.1 -2.69)"/><path class="cls-3" d="M20.88,27.44a.23.23,0,0,0,0,.28.28.28,0,0,0,.24.11.45.45,0,0,0,.29-.09.21.21,0,0,1,.25,0,.15.15,0,0,1,0,.07.61.61,0,0,1-.49.26.52.52,0,0,1-.61-.65.76.76,0,0,1,1-.67.44.44,0,0,1,.33.6.16.16,0,0,1-.13.09,2.29,2.29,0,0,1-.37,0A2.05,2.05,0,0,0,20.88,27.44Zm0-.21a1,1,0,0,0,.55.06.25.25,0,0,0,.16-.1c0-.07,0-.15-.06-.21a.25.25,0,0,0-.25-.1.61.61,0,0,0-.25.08A.28.28,0,0,0,20.91,27.23Z" transform="translate(-8.1 -2.69)"/><path class="cls-3" d="M17.28,27.91A1.51,1.51,0,0,1,17,28a.41.41,0,0,1-.52-.43,5.76,5.76,0,0,1,.15-.81s.06-.06.1-.06a.09.09,0,0,1,.11.1l0,.31c0,.11,0,.22-.05.34a.28.28,0,0,0,.17.31.39.39,0,0,0,.39-.05.57.57,0,0,0,.18-.32,3.11,3.11,0,0,1,.08-.44.58.58,0,0,1,.08-.22.13.13,0,0,1,.12,0s.08.07.07.1a2.15,2.15,0,0,1-.05.34c0,.23-.08.47-.13.7s-.1.17-.25.1A.41.41,0,0,1,17.28,27.91Z" transform="translate(-8.1 -2.69)"/><path class="cls-1" d="M14,24.64a.2.2,0,0,1-.31,0,.27.27,0,0,0-.28-.08c-.07,0-.14.06-.14.13a.2.2,0,0,0,.08.14.64.64,0,0,0,.18.1l.22.1a.35.35,0,0,1,0,.63.74.74,0,0,1-.72,0c-.11-.06-.21-.15-.16-.31a.22.22,0,0,1,.3.05.28.28,0,0,0,.37.08.21.21,0,0,0,.09-.13.15.15,0,0,0-.07-.11,1.79,1.79,0,0,0-.24-.12,1.12,1.12,0,0,1-.24-.13.33.33,0,0,1-.05-.48.67.67,0,0,1,.92,0A1,1,0,0,1,14,24.64Z" transform="translate(-8.1 -2.69)"/><path class="cls-1" d="M9,25.65c0-.5.18-1,.2-1.45l-.4-.06,0-.2c.41,0,.81,0,1.22,0l0,.19-.46.07L9.4,25c0,.16-.05.31-.08.47S9.26,25.67,9,25.65Z" transform="translate(-8.1 -2.69)"/><path class="cls-3" d="M12.8,26.54l-.3,0s-.05,0-.07-.06l.08-.09h0c.3,0,.6,0,.89,0,0,0,.1,0,.1.07s0,.09-.11.09l-.27,0a3.32,3.32,0,0,0-.19.8c0,.16-.05.32-.08.48a.3.3,0,0,1-.07.15.19.19,0,0,1-.15,0,.14.14,0,0,1-.05-.11l.15-.88A1.72,1.72,0,0,0,12.8,26.54Z" transform="translate(-8.1 -2.69)"/><path class="cls-1" d="M10.32,24.32c.22,0,.22,0,.34.09l.32-.1s0,0,0,0l0,.24c-.45.12-.46.19-.52.55l-.06.34c0,.2-.07.22-.31.18A5.28,5.28,0,0,1,10.32,24.32Z" transform="translate(-8.1 -2.69)"/><path class="cls-3" d="M19.87,27.77c0-.07,0-.2.07-.34l.15-.9a1.84,1.84,0,0,1,.09-.25s.07,0,.09,0a.39.39,0,0,1,.1.08.17.17,0,0,1,0,.1c-.08.47-.17.94-.26,1.41v0c0,.11-.09.16-.16.14S19.87,27.94,19.87,27.77Z" transform="translate(-8.1 -2.69)"/><path class="cls-3" d="M13.7,28c.08-.41.14-.78.2-1.15,0-.08,0-.13.13-.14a.14.14,0,0,1,.17.08s0,0,.06.05l.25-.13c.1.11.1.19,0,.21-.34.06-.45.3-.48.61a2.41,2.41,0,0,1-.07.37.14.14,0,0,1-.09.09S13.8,28,13.7,28Z" transform="translate(-8.1 -2.69)"/></svg>